<svg xmlns="http://www.w3.org/2000/svg" data-name="Layer 1" viewBox="0 0 32 40" x="0px" y="0px"><title>folder, file, browse folder, open folder, document folder, file folder</title><path d="M30,12.35V10.5A3.5,3.5,0,0,0,26.5,7H15.24a1,1,0,0,1-.9-.55l-.89-1.79A3,3,0,0,0,10.76,3H3.5A3.5,3.5,0,0,0,0,6.5v19a2.46,2.46,0,0,0,0,.26H0a3.6,3.6,0,0,0,.58,1.7A3.5,3.5,0,0,0,3.5,29h21a3.47,3.47,0,0,0,3.25-2.2l4-10A3.47,3.47,0,0,0,30,12.35ZM2,6.5A1.5,1.5,0,0,1,3.5,5h7.26a1,1,0,0,1,.9.55l.89,1.79A3,3,0,0,0,15.24,9H26.5A1.5,1.5,0,0,1,28,10.5V12H7.5a3.48,3.48,0,0,0-3.25,2.2L2,19.83Zm27.89,9.56-4,10h0A1.49,1.49,0,0,1,24.5,27H3.5A1.49,1.49,0,0,1,2,25.61H2a1.5,1.5,0,0,1,.09-.67l4-10h0A1.5,1.5,0,0,1,7.5,14h21a1.35,1.35,0,0,1,.29,0l.14,0a1.51,1.51,0,0,1,.8.59A1.46,1.46,0,0,1,29.89,16.06Z"/><text x="0" y="47" fill="#000000" font-size="5px" font-weight="bold" font-family="'Helvetica Neue', Helvetica, Arial-Unicode, Arial, Sans-serif">Created by Martins Ratkus</text><text x="0" y="52" fill="#000000" font-size="5px" font-weight="bold" font-family="'Helvetica Neue', Helvetica, Arial-Unicode, Arial, Sans-serif">from the Noun Project</text></svg>